<?xml version="1.0" encoding="utf-8"?>
<!-- Generator: Adobe Illustrator 16.0.0, SVG Export Plug-In . SVG Version: 6.00 Build 0)  -->
<!DOCTYPE svg PUBLIC "-//W3C//DTD SVG 1.0//EN" "http://www.w3.org/TR/2001/REC-SVG-20010904/DTD/svg10.dtd">
<svg version="1.0" id="Layer_1" xmlns="http://www.w3.org/2000/svg" xmlns:xlink="http://www.w3.org/1999/xlink" x="0px" y="0px"
	 width="27px" height="23px" viewBox="0 0 27 23" enable-background="new 0 0 27 23" xml:space="preserve">
<g>
	<circle fill="#C8C8CC" cx="1.5" cy="5.5" r="1.5"/>
	<circle fill="#C8C8CC" cx="1.5" cy="9.5" r="1.5"/>
	<circle fill="#C8C8CC" cx="1.5" cy="13.5" r="1.5"/>
	<circle fill="#C8C8CC" cx="1.5" cy="17.5" r="1.5"/>
	<circle fill="#C8C8CC" cx="17.5" cy="5.5" r="1.5"/>
	<circle fill="#C8C8CC" cx="25.5" cy="13.5" r="1.5"/>
	<circle fill="#C8C8CC" cx="17.5" cy="17.5" r="1.5"/>
	<circle fill="#C8C8CC" cx="21.5" cy="13.5" r="1.5"/>
	<circle fill="#C8C8CC" cx="25.5" cy="17.5" r="1.5"/>
	<circle fill="#C8C8CC" cx="5.5" cy="1.5" r="1.5"/>
	<circle fill="#C8C8CC" cx="5.5" cy="5.5" r="1.5"/>
	<circle fill="#C8C8CC" cx="5.5" cy="9.5" r="1.5"/>
	<circle fill="#C8C8CC" cx="5.5" cy="13.5" r="1.5"/>
	<circle fill="#C8C8CC" cx="5.5" cy="17.5" r="1.5"/>
	<circle fill="#C8C8CC" cx="5.5" cy="21.5" r="1.5"/>
	<circle fill="#C8C8CC" cx="9.5" cy="1.5" r="1.5"/>
	<circle fill="#C8C8CC" cx="9.5" cy="5.5" r="1.5"/>
	<circle fill="#C8C8CC" cx="9.5" cy="17.5" r="1.5"/>
	<circle fill="#C8C8CC" cx="9.5" cy="21.5" r="1.5"/>
	<circle fill="#C8C8CC" cx="13.5" cy="1.5" r="1.5"/>
	<circle fill="#C8C8CC" cx="13.5" cy="5.5" r="1.5"/>
	<circle fill="#C8C8CC" cx="13.5" cy="17.5" r="1.5"/>
	<circle fill="#C8C8CC" cx="13.5" cy="21.5" r="1.5"/>
	<circle fill="#C8C8CC" cx="17.5" cy="1.5" r="1.5"/>
	<circle fill="#C8C8CC" cx="17.5" cy="21.5" r="1.5"/>
</g>
</svg>
