<?xml version="1.0" encoding="UTF-8" standalone="no"?>
<svg
   xmlns:dc="http://purl.org/dc/elements/1.1/"
   xmlns:cc="http://creativecommons.org/ns#"
   xmlns:rdf="http://www.w3.org/1999/02/22-rdf-syntax-ns#"
   xmlns:svg="http://www.w3.org/2000/svg"
   xmlns="http://www.w3.org/2000/svg"
   xmlns:xlink="http://www.w3.org/1999/xlink"
   xmlns:sodipodi="http://sodipodi.sourceforge.net/DTD/sodipodi-0.dtd"
   xmlns:inkscape="http://www.inkscape.org/namespaces/inkscape"
   width="32"
   height="32"
   id="svg2"
   version="1.1"
   inkscape:version="0.91 r13725"
   sodipodi:docname="GCV_icon_station.svg">
  <metadata
     id="metadata13">
    <rdf:RDF>
      <cc:Work
         rdf:about="">
        <dc:format>image/svg+xml</dc:format>
        <dc:type
           rdf:resource="http://purl.org/dc/dcmitype/StillImage" />
      </cc:Work>
    </rdf:RDF>
  </metadata>
  <defs
     id="defs11">
    <linearGradient
       inkscape:collect="always"
       id="linearGradient4291">
      <stop
         style="stop-color:#000000;stop-opacity:1;"
         offset="0"
         id="stop4293" />
      <stop
         style="stop-color:#000000;stop-opacity:0;"
         offset="1"
         id="stop4295" />
    </linearGradient>
    <inkscape:path-effect
       effect="powerstroke"
       id="path-effect4147"
       is_visible="true"
       offset_points="0,0.5"
       sort_points="true"
       interpolator_type="CubicBezierJohan"
       interpolator_beta="0.2"
       start_linecap_type="zerowidth"
       linejoin_type="round"
       miter_limit="4"
       end_linecap_type="zerowidth"
       cusp_linecap_type="round" />
    <radialGradient
       inkscape:collect="always"
       xlink:href="#linearGradient4291"
       id="radialGradient4301"
       cx="15.943821"
       cy="10.404495"
       fx="15.943821"
       fy="10.404495"
       r="1.3471911"
       gradientTransform="matrix(2.0633678,0,0,1.6151503,-16.799729,-5.2299171)"
       gradientUnits="userSpaceOnUse" />
  </defs>
  <sodipodi:namedview
     pagecolor="#ffffff"
     bordercolor="#666666"
     borderopacity="1"
     objecttolerance="10"
     gridtolerance="10"
     guidetolerance="10"
     inkscape:pageopacity="0"
     inkscape:pageshadow="2"
     inkscape:window-width="1920"
     inkscape:window-height="1018"
     id="namedview9"
     showgrid="false"
     inkscape:zoom="22.25"
     inkscape:cx="5.03012"
     inkscape:cy="14.106305"
     inkscape:window-x="-8"
     inkscape:window-y="-8"
     inkscape:window-maximized="1"
     inkscape:current-layer="svg2" />
  <path
     style="opacity:1;fill:none;fill-opacity:1;stroke:#000000;stroke-width:0.18821754;stroke-miterlimit:4;stroke-dasharray:none;stroke-opacity:0"
     id="path4145"
     d="m 16.24592,17.385112 c -0.364707,0.430327 -0.693862,0.874801 -1.019211,1.320282 -0.461133,0.653594 -0.911471,1.310991 -1.365342,1.967119 -0.239779,0.358129 -0.503625,0.707759 -0.768615,1.056826 -0.211164,0.282837 -0.431497,0.562151 -0.663772,0.836665 -0.274935,0.316606 -0.541738,0.636539 -0.785434,0.965626 -0.18847,0.250431 -0.359839,0.506885 -0.535297,0.761846 -0.09701,0.129917 -0.18507,0.263068 -0.280561,0.393483 -0.08771,0.123919 -0.191223,0.241791 -0.288963,0.36183 -0.137284,0.177249 -0.279692,0.352588 -0.427096,0.525769 -0.09175,0.104159 -0.1729004,0.211988 -0.2477764,0.322479 -0.05742,0.07689 -0.121426,0.151196 -0.181347,0.227147 -0.05068,0.06164 -0.103704,0.122284 -0.160495,0.181217 -0.05685,0.05621 -0.099749,0.118269 -0.1521837,0.176395 -0.039451,0.04708 -0.073648,0.09652 -0.1043339,0.14674 -0.034814,0.05478 -0.078348,0.105909 -0.1236788,0.156571 -0.050859,0.05469 -0.087037,0.115108 -0.1258583,0.174251 -0.035232,0.04914 -0.054451,0.10257 -0.085303,0.152994 -0.035683,0.04227 -0.060158,0.08844 -0.092779,0.131757 0,0 -0.5152119,0.161025 -0.5152119,0.161025 l 0,0 c 0.038661,-0.04114 0.058506,-0.08722 0.092228,-0.13021 0.045429,-0.04561 0.053628,-0.102448 0.088937,-0.151765 0.041961,-0.05917 0.075132,-0.121331 0.1223544,-0.178653 0.046155,-0.0488 0.090668,-0.09781 0.1260481,-0.15075 0.034215,-0.05095 0.064329,-0.103034 0.1030733,-0.152501 0.017421,-0.01936 0.037705,-0.03742 0.054217,-0.05717 0.032993,-0.03946 0.054636,-0.08428 0.098141,-0.119216 0.051247,-0.06115 0.1129032,-0.11811 0.16416,-0.179611 0.058287,-0.07624 0.1198282,-0.150825 0.1821485,-0.225451 0.079995,-0.112185 0.1589103,-0.224281 0.2575693,-0.329346 0.148841,-0.171846 0.291376,-0.346517 0.4259144,-0.524097 0.09406,-0.119762 0.194715,-0.236925 0.282521,-0.358999 0.10337,-0.129341 0.186858,-0.266652 0.291703,-0.395642 0.185284,-0.255423 0.358362,-0.515344 0.551957,-0.76786 0.242309,-0.329669 0.507909,-0.650103 0.782323,-0.967015 0.231199,-0.273185 0.447259,-0.552374 0.658717,-0.833321 0.272882,-0.353339 0.551961,-0.704527 0.802414,-1.066185 0.138915,-0.193959 0.279526,-0.387321 0.416916,-0.581818 0.244114,-0.345583 0.477527,-0.694773 0.717732,-1.041682 0.08069,-0.116543 0.163451,-0.232372 0.245175,-0.348559 0.308927,-0.435988 0.621676,-0.870594 0.950494,-1.299336 0,0 0.508514,-0.160827 0.508514,-0.160827 z"
     inkscape:connector-curvature="0" />
  <path
     style="opacity:1;fill:none;fill-opacity:1;stroke:#000000;stroke-width:0.18821754;stroke-miterlimit:4;stroke-dasharray:none;stroke-opacity:0"
     id="path4147"
     d="m 16.263942,17.039756 c -0.440313,0.436524 -0.868462,0.87879 -1.290541,1.324178 -0.138248,0.151991 -0.275989,0.30421 -0.414743,0.455971 -0.454324,0.496914 -0.495656,0.534573 -0.951408,1.044069 -0.457296,0.511222 -0.901436,1.028167 -1.349378,1.543451 -0.564202,0.657829 -1.127167,1.316261 -1.643832,1.993335 -0.229562,0.29361 -0.425402,0.598778 -0.6225604,0.903506 -0.131887,0.192186 -0.256575,0.386756 -0.388996,0.578767 -0.09272,0.140374 -0.1989659,0.275855 -0.3054278,0.411205 -0.1181065,0.140977 -0.2403156,0.28021 -0.3619687,0.419678 -0.1218154,0.139174 -0.2499949,0.275327 -0.3835336,0.409031 -0.014064,0.01458 -0.02813,0.02916 -0.042194,0.04375 0,0 -0.5110483,0.157044 -0.5110483,0.157044 l 0,0 c 0.01457,-0.0151 0.029139,-0.03022 0.043708,-0.04532 0.1378158,-0.132472 0.2690733,-0.267911 0.3904958,-0.408189 0.121561,-0.138455 0.2396557,-0.278348 0.3602845,-0.417226 0.1069721,-0.135292 0.2145761,-0.270431 0.308966,-0.410362 0.1382507,-0.191933 0.2633361,-0.388365 0.3996461,-0.580969 0.204605,-0.308747 0.404768,-0.619064 0.6476164,-0.91429 0.542615,-0.683445 1.129151,-1.348644 1.710337,-2.016016 0.454828,-0.515915 0.906239,-1.033328 1.363444,-1.548202 0.159063,-0.179128 0.319306,-0.357735 0.47896,-0.536603 0.150234,-0.166879 0.30177,-0.333181 0.450699,-0.500638 0.133094,-0.149652 0.263569,-0.30045 0.395355,-0.450675 0.03323,-0.03612 0.572518,-0.622695 0.633261,-0.687492 0.189993,-0.202673 0.390071,-0.400813 0.565587,-0.61007 0,0 0.517271,-0.157927 0.517271,-0.157927 z"
     inkscape:connector-curvature="0" />
  <path
     style="opacity:1;fill:none;fill-opacity:1;stroke:#000000;stroke-width:0.18821754;stroke-miterlimit:4;stroke-dasharray:none;stroke-opacity:0"
     id="path4173"
     d="m 16.221173,17.510004 c -0.190454,0.321324 -0.406722,0.634624 -0.634013,0.943708 -0.329626,0.437223 -0.678051,0.867078 -0.995782,1.308706 -0.04877,0.07094 -0.09678,0.142135 -0.14629,0.212824 -0.115758,0.165315 -0.172676,0.237422 -0.284155,0.402776 -0.117326,0.174026 -0.221627,0.351736 -0.325751,0.529791 -0.02828,0.05264 -0.05697,0.10518 -0.08483,0.157934 -0.0261,0.0494 -0.04974,0.09946 -0.07704,0.148544 -0.09333,0.167803 -0.205815,0.331006 -0.31007,0.495566 -0.123823,0.18129 -0.256002,0.359629 -0.385344,0.538969 -0.08292,0.113895 -0.177016,0.223442 -0.252462,0.339966 -0.08588,0.131023 -0.171212,0.262185 -0.254501,0.39404 -0.125235,0.184855 -0.270006,0.362444 -0.410823,0.541491 -0.159989,0.19237 -0.309956,0.38856 -0.451148,0.588062 -0.151381,0.236562 -0.30601,0.471679 -0.47866,0.701051 -0.101822,0.135277 -0.226735,0.260657 -0.34346,0.389474 -0.08202,0.09053 -0.158397,0.183526 -0.238489,0.274895 -0.06791,0.07577 -0.132248,0.153102 -0.18246,0.235487 -0.01978,0.03439 -0.04103,0.06834 -0.05968,0.103051 0,0 -0.5106574,0.168329 -0.5106574,0.168329 l 0,0 c 0.01637,-0.03643 0.0388,-0.07064 0.05848,-0.106172 0.05434,-0.08533 0.113791,-0.168397 0.1914354,-0.244961 0.08605,-0.09192 0.164785,-0.186876 0.249917,-0.279191 0.117956,-0.12791 0.246449,-0.251321 0.347523,-0.386677 0.121572,-0.161118 0.237059,-0.324646 0.340524,-0.492007 0.02158,-0.03491 0.04034,-0.07066 0.06225,-0.105459 0.02117,-0.03361 0.04465,-0.06649 0.06698,-0.09973 0.141869,-0.199503 0.289017,-0.396964 0.4496,-0.589382 0.140072,-0.177678 0.282886,-0.354216 0.409259,-0.537035 0.08042,-0.131422 0.161548,-0.262492 0.248028,-0.392012 0.07194,-0.119531 0.168645,-0.229674 0.255955,-0.343807 0.134147,-0.179024 0.266438,-0.358801 0.395075,-0.539846 0.172743,-0.265133 0.351236,-0.528513 0.485142,-0.805051 0.107297,-0.179528 0.213768,-0.359023 0.333282,-0.534768 0.149281,-0.219519 0.13175,-0.182774 0.287709,-0.403661 0.05011,-0.07096 0.09831,-0.142588 0.147448,-0.213882 0.31734,-0.441542 0.66503,-0.87147 0.994449,-1.308542 0.219122,-0.301746 0.430481,-0.607617 0.59477,-0.926579 0,0 0.507776,-0.165898 0.507776,-0.165898 z"
     inkscape:connector-curvature="0" />
  <rect
     style="opacity:1;fill:url(#radialGradient4301);fill-opacity:1;stroke:#000000;stroke-width:0.33212397;stroke-miterlimit:4;stroke-dasharray:none;stroke-opacity:0"
     id="rect4289"
     width="5.1468282"
     height="4.0845356"
     x="13.524822"
     y="9.5326385" />
  <path
     style="fill:none;fill-rule:evenodd;stroke:#000000;stroke-width:0.8;stroke-linecap:butt;stroke-linejoin:miter;stroke-opacity:1;stroke-miterlimit:4;stroke-dasharray:none"
     d="m 10.69663,25.52809 11.011236,0.02247 -3.797753,-11.483146 -3.685394,0 z"
     id="path4307"
     inkscape:connector-curvature="0" />
  <path
     style="fill:none;fill-rule:evenodd;stroke:#000000;stroke-width:0.8;stroke-linecap:butt;stroke-linejoin:miter;stroke-opacity:1;stroke-miterlimit:4;stroke-dasharray:none"
     d="m 11.618493,22.382136 9.135727,0.04471"
     id="path4309"
     inkscape:connector-curvature="0" />
  <path
     style="fill:none;fill-rule:evenodd;stroke:#000000;stroke-width:0.8;stroke-linecap:butt;stroke-linejoin:miter;stroke-opacity:1;stroke-miterlimit:4;stroke-dasharray:none"
     d="m 12.550772,19.160768 7.123457,-0.03162"
     id="path4311"
     inkscape:connector-curvature="0" />
  <path
     style="fill:none;fill-rule:evenodd;stroke:#000000;stroke-width:0.8;stroke-linecap:butt;stroke-linejoin:miter;stroke-opacity:1;stroke-miterlimit:4;stroke-dasharray:none"
     d="m 13.407382,16.236951 5.219556,-0.03152"
     id="path4313"
     inkscape:connector-curvature="0" />
  <path
     style="fill:none;fill-rule:evenodd;stroke:#000000;stroke-width:0.5;stroke-linecap:butt;stroke-linejoin:miter;stroke-miterlimit:4;stroke-dasharray:none;stroke-opacity:1"
     d="m 12.034585,10.31022 c 2.010137,-1.5410083 2.010137,-1.5410083 2.010137,-1.5410083 l 0,0"
     id="path4315-2"
     inkscape:connector-curvature="0" />
  <path
     style="fill:none;fill-rule:evenodd;stroke:#000000;stroke-width:0.5;stroke-linecap:butt;stroke-linejoin:miter;stroke-miterlimit:4;stroke-dasharray:none;stroke-opacity:1"
     d="M 10.113295,9.5080656 13.464414,6.7722274"
     id="path4317-9"
     inkscape:connector-curvature="0" />
  <path
     style="fill:none;fill-rule:evenodd;stroke:#000000;stroke-width:0.5;stroke-linecap:butt;stroke-linejoin:miter;stroke-miterlimit:4;stroke-dasharray:none;stroke-opacity:1"
     d="M 8.2337005,8.4247376 12.683648,4.6736764"
     id="path4319-2"
     inkscape:connector-curvature="0" />
  <path
     style="fill:none;fill-rule:evenodd;stroke:#000000;stroke-width:0.5;stroke-linecap:butt;stroke-linejoin:miter;stroke-miterlimit:4;stroke-dasharray:none;stroke-opacity:1"
     d="m 17.999604,8.5832624 c 1.805768,1.7761066 1.805768,1.7761066 1.805768,1.7761066 l 0,0"
     id="path4315-2-5"
     inkscape:connector-curvature="0" />
  <path
     style="fill:none;fill-rule:evenodd;stroke:#000000;stroke-width:0.5;stroke-linecap:butt;stroke-linejoin:miter;stroke-miterlimit:4;stroke-dasharray:none;stroke-opacity:1"
     d="m 18.526559,6.5690317 3.175599,2.9377508"
     id="path4317-9-4"
     inkscape:connector-curvature="0" />
  <path
     style="fill:none;fill-rule:evenodd;stroke:#000000;stroke-width:0.5;stroke-linecap:butt;stroke-linejoin:miter;stroke-miterlimit:4;stroke-dasharray:none;stroke-opacity:1"
     d="m 19.337756,4.5569592 4.333869,3.8845937"
     id="path4319-2-8"
     inkscape:connector-curvature="0" />
</svg>
