<?xml version="1.0" encoding="utf-8"?>
<!-- Generator: Adobe Illustrator 16.0.0, SVG Export Plug-In . SVG Version: 6.00 Build 0)  -->
<!DOCTYPE svg PUBLIC "-//W3C//DTD SVG 1.0//EN" "http://www.w3.org/TR/2001/REC-SVG-20010904/DTD/svg10.dtd">
<svg version="1.0" id="Layer_1" xmlns="http://www.w3.org/2000/svg" xmlns:xlink="http://www.w3.org/1999/xlink" x="0px" y="0px"
	 width="26px" height="26px" viewBox="0 0 26 26" enable-background="new 0 0 26 26" xml:space="preserve">
<rect x="6" y="1" fill="#2C3034" width="4" height="4"/>
<rect x="1" y="1" fill="#2C3034" width="4" height="4"/>
<rect x="16" y="1" fill="#2C3034" width="4" height="4"/>
<rect x="21" y="1" fill="#2C3034" width="4" height="4"/>
<rect x="11" y="1" fill="#2C3034" width="4" height="4"/>
<rect x="6" y="6" fill="#2C3034" width="4" height="4"/>
<rect x="1" y="6" fill="#2C3034" width="4" height="4"/>
<rect x="16" y="6" fill="#2C3034" width="4" height="4"/>
<rect x="21" y="6" fill="#2C3034" width="4" height="4"/>
<rect x="11" y="6" fill="#2C3034" width="4" height="4"/>
<rect x="6" y="11" fill="#2C3034" width="4" height="4"/>
<rect x="1" y="11" fill="#2C3034" width="4" height="4"/>
<rect x="16" y="11" fill="#2C3034" width="4" height="4"/>
<rect x="21" y="11" fill="#2C3034" width="4" height="4"/>
<rect x="11" y="11" fill="#2C3034" width="4" height="4"/>
<rect x="6" y="16" fill="#2C3034" width="4" height="4"/>
<rect x="1" y="16" fill="#2C3034" width="4" height="4"/>
<rect x="16" y="16" fill="#2C3034" width="4" height="4"/>
<rect x="21" y="16" fill="#2C3034" width="4" height="4"/>
<rect x="11" y="16" fill="#2C3034" width="4" height="4"/>
<rect x="6" y="21" fill="#2C3034" width="4" height="4"/>
<rect x="1" y="21" fill="#2C3034" width="4" height="4"/>
<rect x="16" y="21" fill="#2C3034" width="4" height="4"/>
<rect x="21" y="21" fill="#2C3034" width="4" height="4"/>
<rect x="11" y="21" fill="#2C3034" width="4" height="4"/>
</svg>
