<?xml version="1.0" encoding="utf-8"?>
<!-- Generator: Adobe Illustrator 16.0.0, SVG Export Plug-In . SVG Version: 6.00 Build 0)  -->
<!DOCTYPE svg PUBLIC "-//W3C//DTD SVG 1.0//EN" "http://www.w3.org/TR/2001/REC-SVG-20010904/DTD/svg10.dtd">
<svg version="1.0" id="Layer_1" xmlns="http://www.w3.org/2000/svg" xmlns:xlink="http://www.w3.org/1999/xlink" x="0px" y="0px"
	 width="18px" height="18px" viewBox="0 0 18 18" enable-background="new 0 0 18 18" xml:space="preserve">
<path fill="#FFFFFF" d="M9,1C4.582,1,1,4.582,1,9s3.582,8,8,8s8-3.582,8-8S13.418,1,9,1z M9.816,13.703
	C9.616,13.9,9.339,14,8.982,14c-0.364,0-0.646-0.098-0.846-0.289c-0.2-0.195-0.3-0.467-0.3-0.818c0-0.365,0.098-0.642,0.293-0.828
	c0.195-0.188,0.479-0.279,0.853-0.279c0.36,0,0.64,0.096,0.836,0.285c0.197,0.191,0.297,0.467,0.297,0.822
	C10.115,13.236,10.016,13.506,9.816,13.703z M11.965,7.604c-0.218,0.347-0.63,0.739-1.236,1.173
	c-0.418,0.308-0.682,0.542-0.791,0.703c-0.11,0.161-0.166,0.372-0.166,0.633v0.562H8.045v-0.651c0-0.418,0.089-0.781,0.268-1.089
	C8.49,8.625,8.815,8.297,9.289,7.949c0.455-0.326,0.756-0.591,0.9-0.795c0.146-0.204,0.219-0.433,0.219-0.684
	c0-0.282-0.104-0.498-0.312-0.645C9.889,5.677,9.598,5.603,9.224,5.603c-0.651,0-1.63,0.193-2.463,0.619L6.024,4.797
	C6.992,4.254,8.281,4,9.367,4c0.894,0,1.604,0.215,2.132,0.645s0.791,1.004,0.791,1.72C12.29,6.843,12.182,7.256,11.965,7.604z"/>
</svg>
