<?xml version="1.0" encoding="utf-8"?>
<!-- Generator: Adobe Illustrator 16.0.0, SVG Export Plug-In . SVG Version: 6.00 Build 0)  -->
<!DOCTYPE svg PUBLIC "-//W3C//DTD SVG 1.0//EN" "http://www.w3.org/TR/2001/REC-SVG-20010904/DTD/svg10.dtd">
<svg version="1.0" id="Layer_1" xmlns="http://www.w3.org/2000/svg" xmlns:xlink="http://www.w3.org/1999/xlink" x="0px" y="0px"
	 width="38px" height="30px" viewBox="0 0 38 30" enable-background="new 0 0 38 30" xml:space="preserve">
<path fill="#FFFFFF" d="M2.223,9.265L2.68,9.467c-0.195,0.441-0.356,0.858-0.492,1.274l-0.041,0.093C1.73,12.135,1.5,13.564,1.5,15
	c0,7.444,5.987,13.5,13.347,13.5h8.312C30.516,28.5,36.5,22.444,36.5,15c0-1.509-0.26-3.019-0.772-4.488
	c-0.584-1.661-1.449-3.146-2.583-4.444l-0.081-0.092C30.529,3.131,26.922,1.5,23.159,1.5h-8.312c-0.442,0-0.878,0.024-1.31,0.067
	c-1.427,0.14-2.829,0.521-4.167,1.131L9.364,2.701C8.965,2.883,8.562,3.093,8.165,3.325C7.725,3.589,7.375,3.82,7.037,4.069
	L6.956,4.129C6.596,4.4,6.286,4.654,5.989,4.921L5.915,4.989c-0.35,0.324-0.625,0.6-0.886,0.889L4.89,6.032
	C4.635,6.322,4.392,6.624,4.161,6.936L4.038,7.101C3.809,7.422,3.595,7.753,3.395,8.094L2.866,8L3.3,8.249
	c-0.207,0.36-0.394,0.73-0.567,1.109L2.223,9.265z"/>
<g>
	<g>
		<polygon fill="#80818A" points="21.953,6.12 21.953,5.292 21.615,4.95 21.615,3.816 21.061,3.816 20.814,4.392 20.814,5.184 
			20.35,5.651 20.35,6.983 21.099,6.983 		"/>
		<polygon fill="#80818A" points="20.03,5.148 19.674,5.327 19.425,6.264 20.03,6.264 		"/>
		<polygon fill="#80818A" points="29.639,19.553 29.577,19.621 29.577,20.242 28.812,21.014 28.793,21.062 28.793,21.962 
			28.86,22.033 29.466,22.033 29.525,21.993 30.204,20.662 30.213,20.631 30.213,19.586 30.137,19.518 		"/>
	</g>
	<polygon fill="#2C3034" points="26,14.999 15,19.999 15,10 	"/>
	<g>
		<polygon fill="#80818A" points="27.241,17.73 23.41,19.471 23.051,19.833 23.032,19.883 23.032,21.711 23.051,21.76 
			24.241,22.963 24.29,22.983 25.55,22.983 25.598,22.963 26.672,21.875 26.692,21.823 26.692,21.164 28.289,19.547 28.309,19.5 
			28.309,18.534 30.432,16.388 30.395,16.297 		"/>
		<path fill="#80818A" d="M36.199,10.347c-0.002-0.011-0.006-0.021-0.01-0.031c-0.606-1.724-1.532-3.29-2.713-4.628
			c-0.003-0.002-0.006-0.006-0.008-0.009C30.935,2.814,27.262,1,23.159,1h-3.628h-4.685c-0.459,0-0.911,0.025-1.358,0.069
			c-1.53,0.15-2.982,0.561-4.326,1.173C9.16,2.244,9.159,2.245,9.156,2.246C8.729,2.441,8.315,2.658,7.912,2.894
			C7.886,2.91,7.858,2.928,7.831,2.944c-0.376,0.224-0.738,0.463-1.09,0.721C6.698,3.696,6.658,3.728,6.617,3.759
			c-0.333,0.25-0.654,0.513-0.963,0.79C5.605,4.593,5.559,4.638,5.511,4.681C5.214,4.956,4.93,5.242,4.658,5.542
			C4.61,5.594,4.562,5.648,4.515,5.701C4.25,6.003,3.998,6.315,3.759,6.639C3.717,6.696,3.674,6.751,3.632,6.81
			c-0.238,0.333-0.46,0.677-0.668,1.03C2.932,7.894,2.898,7.946,2.866,8C2.652,8.374,2.458,8.757,2.278,9.15
			C2.261,9.189,2.241,9.227,2.223,9.265c-0.19,0.431-0.362,0.87-0.51,1.322c-0.002,0.003-0.003,0.006-0.004,0.009
			C1.254,11.982,1,13.459,1,15c0,7.732,6.198,14,13.847,14h8.312C30.808,29,37,22.732,37,15C37,13.366,36.708,11.805,36.199,10.347z
			 M29.82,9.461l0.639-0.646l-0.027,0.759l0.014,0.046l0.378,0.487l0.065,0.984H29.82V9.461z M10.764,21.591l-0.339,0.343h-0.57
			c-0.022,0-0.044,0.01-0.06,0.026l-0.26,0.262c-0.017,0.018-0.024,0.04-0.024,0.063v3.912C5.393,24.182,2.539,19.928,2.539,15
			c0-0.844,0.084-1.668,0.243-2.465c0.017,0.019,0.038,0.037,0.063,0.037h0.656l0.311,0.311l1.385,2.101
			c0.006,0.009,0.014,0.017,0.023,0.023l3.115,2.093c0.015,0.011,0.031,0.017,0.047,0.017h0.663l0.303,0.304v2.753
			c0,0.021,0.008,0.044,0.024,0.062l0.335,0.339C9.725,20.592,9.746,20.6,9.77,20.6h0.677l0.317,0.32V21.591z M23.159,27.444h-8.312
			c-1.251,0-2.457-0.192-3.595-0.544H11.5c0.022,0,0.045-0.008,0.061-0.026l0.346-0.35c0.017-0.015,0.026-0.039,0.026-0.062v-0.35
			c0-0.033-0.019-0.064-0.048-0.08l-0.615-0.311l0.299-0.605L12,24.658v-4.659v-3.47c-0.089-0.076-0.151-0.129-0.154-0.129H8.729
			l-2.337-2.202V12.87l0.298-0.298h1.312l0.295,0.298v1.714c0,0.024,0.011,0.046,0.026,0.062l0.347,0.351
			c0.016,0.016,0.037,0.024,0.06,0.024h0.349c0.021,0,0.043-0.009,0.06-0.024l0.346-0.351c0.017-0.016,0.027-0.038,0.027-0.062
			V11.82l1.333-1.348H12V10V9.367l-0.067-0.068V7.934c0-0.022-0.01-0.044-0.026-0.061l-0.346-0.35
			c-0.016-0.016-0.038-0.026-0.061-0.026h-0.997V7.227l1.317-1.331c0.016-0.016,0.025-0.038,0.025-0.062V5.573
			c0-0.025-0.01-0.046-0.025-0.062l-0.26-0.263c-0.016-0.016-0.038-0.025-0.061-0.025h-1.176L9.162,4.048V3.973
			c1.702-0.9,3.633-1.417,5.685-1.417h0.028v0.982c0,0.024,0.01,0.046,0.025,0.062l0.346,0.351c0.017,0.016,0.038,0.025,0.062,0.025
			h0.693c0.019,0,0.041-0.008,0.057-0.023l1.534-1.396h5.567c1.698,0,3.319,0.351,4.794,0.984l-0.301,0.261L26.959,4.5L23.941,4
			l-0.044,0.02l-1.46,1.548l-0.014,0.076l0.213,0.504l0.062,0.042h0.465l0.02-0.002l0.385-0.13l0.184,0.215l0.043,0.024l0.535,0.071
			l0.068-0.034l0.586-1.08h0.958v0.838l-0.885,0.896h-1.295l-0.408-0.412l-0.116,0.05v0.471h-1.109l-0.047,0.018L21.41,7.796h-0.455
			l-0.049,0.121l0.576,0.581v0.72H20.53l1.438,0.654l0.233-0.334h0.462l0.049-0.02l0.266-0.268h0.257l0.784,1.102l-0.035,0.409
			l0.116,0.055l0.535-0.54l0.014-0.082l-0.589-1.124h0.462l0.602,0.607v0.944l0.069,0.071h0.356l0.048-0.022l0.567-0.571h0.345
			l0.068-0.073V9.136l0.352-0.355h0.905l0.868,0.879v0.638h-1.622l-0.07,0.07v0.647l0.07,0.069h0.751v0.583h-1.913l1.322,0.601
			l4.636,2.106l0.112-0.057l0.026-0.098l-0.497-0.758l-0.06-0.029h-0.738l-0.473-1.022l0.379-0.027l1.225,0.601l1.714,1.45v1.407
			l0.02,0.049l0.605,0.613l0.105-0.013l0.952-1.498l0.205-0.133c0,0.047,0.008,0.093,0.008,0.141
			C35.461,21.861,29.941,27.444,23.159,27.444z"/>
	</g>
</g>
</svg>
