<?xml version="1.0" encoding="utf-8"?>
<!-- Generator: Adobe Illustrator 16.0.0, SVG Export Plug-In . SVG Version: 6.00 Build 0)  -->
<!DOCTYPE svg PUBLIC "-//W3C//DTD SVG 1.0//EN" "http://www.w3.org/TR/2001/REC-SVG-20010904/DTD/svg10.dtd">
<svg version="1.0" id="Layer_1" xmlns="http://www.w3.org/2000/svg" xmlns:xlink="http://www.w3.org/1999/xlink" x="0px" y="0px"
	 width="25px" height="18px" viewBox="0 0 25 18" enable-background="new 0 0 25 18" xml:space="preserve">
<g>
	<g>
		<path fill="#FFFFFF" d="M16,2.18L22.113,6L16,9.82L9.887,6L16,2.18 M16,1L8,6l8,5l8-5L16,1L16,1z"/>
		<polygon fill="#FFFFFF" points="21.457,8.59 22.113,9 16,12.82 9.887,9 10.543,8.59 9.6,8 8,9 16,14 24,9 22.4,8 		"/>
		<polygon fill="#FFFFFF" points="21.457,11.59 22.113,12 16,15.82 9.887,12 10.543,11.59 9.6,11 8,12 16,17 24,12 22.4,11 		"/>
	</g>
	<path fill="#FFFFFF" d="M4.958,12.047C4.842,12.197,3.487,14,1.379,14c-0.407,0-0.562-0.226-0.562-0.525
		c0-0.376,0.309-1.259,1.084-3.344l0.541-1.465c0.193-0.506,0.31-0.863,0.31-1.089c0-0.149-0.077-0.226-0.232-0.226
		c-0.31,0-0.746,0.496-1.017,0.797c-0.078,0.074-0.156,0.074-0.232,0L1.076,7.979C1,7.923,0.96,7.885,1,7.811
		C1.116,7.697,2.404,6,4.106,6c0.465,0,0.697,0.226,0.697,0.602c0,0.375-0.252,1.07-0.581,1.952L3.14,11.408
		c-0.271,0.713-0.348,1.014-0.348,1.202c0,0.149,0.076,0.263,0.232,0.263c0.387-0.037,1.393-1.052,1.509-1.201
		c0.038-0.076,0.116-0.076,0.174-0.02l0.213,0.207C4.996,11.934,5.036,11.972,4.958,12.047z M4,5C3.447,5,3,4.553,3,4
		c0-0.552,0.447-1,1-1s1,0.448,1,1C5,4.553,4.553,5,4,5z"/>
</g>
</svg>
