<?xml version="1.0" encoding="utf-8"?>
<!-- Generator: Adobe Illustrator 16.0.0, SVG Export Plug-In . SVG Version: 6.00 Build 0)  -->
<!DOCTYPE svg PUBLIC "-//W3C//DTD SVG 1.0//EN" "http://www.w3.org/TR/2001/REC-SVG-20010904/DTD/svg10.dtd">
<svg version="1.0" id="Layer_1" xmlns="http://www.w3.org/2000/svg" xmlns:xlink="http://www.w3.org/1999/xlink" x="0px" y="0px"
	 width="32px" height="32px" viewBox="0 0 32 32" enable-background="new 0 0 32 32" xml:space="preserve">
<g>
	<path d="M28.423,12.676c-0.003-0.008-0.005-0.015-0.008-0.022c-0.438-1.231-1.106-2.35-1.96-3.305
		c-0.002-0.002-0.004-0.005-0.006-0.008c-1.83-2.046-4.482-3.342-7.445-3.342h-2.619H13c-0.33,0-0.657,0.018-0.979,0.049l0,0
		c-1.105,0.107-2.155,0.401-3.125,0.839l0,0C8.895,6.888,8.893,6.888,8.891,6.89C8.583,7.028,8.284,7.183,7.993,7.352
		c-0.021,0.012-0.039,0.024-0.06,0.036C7.663,7.548,7.4,7.719,7.146,7.903c-0.03,0.021-0.06,0.045-0.09,0.066
		c-0.24,0.178-0.472,0.366-0.695,0.564C6.326,8.565,6.293,8.597,6.258,8.628C6.044,8.825,5.839,9.029,5.643,9.243
		C5.607,9.28,5.572,9.319,5.539,9.356c-0.191,0.216-0.373,0.439-0.546,0.67c-0.03,0.041-0.062,0.081-0.092,0.123
		c-0.172,0.237-0.333,0.482-0.483,0.735c-0.023,0.038-0.047,0.075-0.069,0.114c-0.154,0.267-0.296,0.541-0.425,0.822
		c-0.014,0.027-0.027,0.054-0.04,0.082c-0.138,0.307-0.262,0.621-0.368,0.943c-0.002,0.002-0.002,0.004-0.004,0.007l0,0
		C3.184,13.844,3,14.899,3,15.999c0,5.523,4.477,10,10,10h6.004c5.524,0,9.996-4.477,9.996-10C29,14.832,28.79,13.717,28.423,12.676
		z M24.266,12.156l0.273,0.348l0.047,0.703h-0.771v-1.164l0.461-0.462l-0.02,0.542L24.266,12.156z M4.111,15.999
		c0-0.604,0.062-1.191,0.177-1.761c0.012,0.014,0.026,0.026,0.046,0.026h0.474l0.224,0.223l1,1.5
		c0.005,0.006,0.011,0.012,0.018,0.018l2.25,1.494c0.01,0.008,0.021,0.012,0.034,0.012h0.479l0.218,0.217v1.967
		c0,0.016,0.006,0.031,0.018,0.045l0.242,0.242c0.012,0.012,0.027,0.018,0.045,0.018h0.488l0.23,0.229v0.479l-0.245,0.245H9.396
		c-0.017,0-0.032,0.007-0.044,0.018l-0.188,0.188c-0.012,0.013-0.018,0.028-0.018,0.045v2.795
		C6.172,22.558,4.111,19.519,4.111,15.999z M19.004,24.888H13c-0.902,0-1.773-0.137-2.596-0.389h0.18
		c0.016,0,0.031-0.006,0.043-0.019l0.25-0.249c0.012-0.012,0.02-0.028,0.02-0.045v-0.25c0-0.023-0.014-0.045-0.035-0.057
		l-0.443-0.221l0.216-0.434l2.491-1.977c0.008-0.007,0.014-0.016,0.018-0.025l0.75-2c0.002-0.007,0.003-0.014,0.003-0.021v-0.75
		c0-0.025-0.015-0.047-0.036-0.057l-2.276-0.756c-0.008-0.004-0.741-0.641-0.749-0.641H8.583l-1.688-1.572v-0.949l0.214-0.213h0.948
		l0.213,0.213v1.225c0,0.018,0.007,0.033,0.019,0.044l0.25,0.251c0.012,0.012,0.027,0.018,0.044,0.018h0.251
		c0.016,0,0.031-0.006,0.043-0.018l0.251-0.251c0.011-0.011,0.019-0.026,0.019-0.044v-1.975l0.963-0.963h1.725
		c0.016,0,0.031-0.007,0.043-0.018l0.25-0.25c0.025-0.025,0.025-0.064,0-0.088l-0.25-0.252c-0.012-0.011-0.027-0.018-0.043-0.018
		h-0.725l-0.213-0.213v-0.975c0-0.017-0.008-0.032-0.02-0.045l-0.25-0.25c-0.012-0.011-0.027-0.018-0.043-0.018h-0.72v-0.193
		l0.95-0.95c0.013-0.011,0.02-0.026,0.02-0.044V9.265c0-0.018-0.007-0.033-0.02-0.044l-0.188-0.188
		c-0.012-0.011-0.027-0.018-0.043-0.018h-0.85L8.896,8.177V8.122C10.125,7.479,11.52,7.11,13,7.11h0.021v0.701
		c0,0.018,0.006,0.033,0.018,0.044l0.25,0.251c0.012,0.012,0.027,0.018,0.045,0.018h0.5c0.015,0,0.029-0.006,0.041-0.016
		l1.108-0.998h4.021c1.228,0,2.398,0.25,3.463,0.703L22.25,7.999l-0.501,0.5l-2.181-0.357l-0.031,0.015l-1.055,1.105l-0.01,0.054
		l0.154,0.36l0.045,0.03h0.336l0.015-0.002L19.3,9.611l0.132,0.153l0.031,0.018l0.387,0.051l0.05-0.024l0.423-0.771h0.692v0.599
		l-0.64,0.64h-0.936l-0.295-0.294l-0.084,0.035v0.337h-0.8l-0.034,0.013l-0.486,0.487h-0.328l-0.035,0.086l0.416,0.415v0.515h-0.971
		l-0.051,0.05v0.979l0.014,0.034l0.244,0.244l0.059,0.01l0.734-0.399l0.017-0.016l0.474-0.673h0.334l0.035-0.015l0.191-0.191h0.186
		l0.566,0.787l-0.024,0.292l0.084,0.039l0.386-0.386l0.01-0.059l-0.425-0.803h0.334l0.435,0.434v0.674l0.049,0.051h0.258
		l0.035-0.016l0.41-0.408h0.248l0.05-0.052v-0.635l0.254-0.254h0.653l0.627,0.628v0.456h-1.172l-0.05,0.05v0.463l0.05,0.049h0.543
		v0.416h-1.957l-0.02,0.004l-0.663,0.271l-0.302-0.303l-0.125-0.425l-0.048-0.037h-1.338l-0.035,0.015l-0.229,0.229h-0.559
		l-0.035,0.015l-1.086,1.088l-0.015,0.035v1.831l0.015,0.037l1.084,1.083l0.034,0.013h0.493l0.033-0.013l0.348-0.349h0.754
		l0.473,0.473v1.591l-0.275,0.274l-0.014,0.035v1.307l0.014,0.034l0.859,0.859l0.035,0.015h0.91l0.035-0.015l0.775-0.776
		l0.016-0.037v-0.472l1.152-1.154l0.015-0.034v-0.689l1.533-1.533l-0.034-0.084h-1.385v-0.82l-0.006-0.021l-0.738-1.602h0.559
		l0.759,1.744l0.042,0.03l0.411,0.025l0.026-0.005l1.491-0.747l0.019-0.07L25.041,14.9l-0.042-0.021h-0.534l-0.342-0.73l0.275-0.02
		l0.883,0.429l1.238,1.036V16.6l0.014,0.035l0.438,0.438l0.076-0.009l0.688-1.07l0.148-0.096c0,0.035,0.005,0.067,0.005,0.102
		C27.889,20.9,23.903,24.888,19.004,24.888z"/>
	<polygon points="18.133,9.656 18.133,9.064 17.889,8.82 17.889,8.011 17.489,8.011 17.311,8.422 17.311,8.987 16.976,9.321 
		16.976,10.272 17.516,10.272 	"/>
	<polygon points="16.744,8.962 16.486,9.09 16.307,9.759 16.744,9.759 	"/>
	<polygon points="23.685,19.251 23.639,19.3 23.639,19.743 23.087,20.295 23.072,20.329 23.072,20.972 23.122,21.022 23.559,21.022 
		23.603,20.994 24.092,20.043 24.098,20.021 24.098,19.274 24.044,19.226 	"/>
</g>
</svg>
