<?xml version="1.0" encoding="utf-8"?>
<!-- Generator: Adobe Illustrator 16.0.0, SVG Export Plug-In . SVG Version: 6.00 Build 0)  -->
<!DOCTYPE svg PUBLIC "-//W3C//DTD SVG 1.0//EN" "http://www.w3.org/TR/2001/REC-SVG-20010904/DTD/svg10.dtd">
<svg version="1.0" id="Layer_1" xmlns="http://www.w3.org/2000/svg" xmlns:xlink="http://www.w3.org/1999/xlink" x="0px" y="0px"
	 width="32px" height="32px" viewBox="0 0 32 32" enable-background="new 0 0 32 32" xml:space="preserve">
<g>
	<path fill="#FFFFFF" d="M18.887,17.473C19.586,16.492,20,15.295,20,14c0-3.313-2.686-6-6-6c-3.312,0-6,2.687-6,6s2.688,6,6,6
		c1.296,0,2.492-0.415,3.473-1.113l4.82,4.82l1.414-1.414L18.887,17.473z M14,18c-2.205,0-4-1.795-4-4s1.795-4,4-4
		c2.206,0,4,1.795,4,4S16.206,18,14,18z"/>
	<polygon fill="#FFFFFF" points="15,11 13,11 13,13 11,13 11,15 13,15 13,17 15,17 15,15 17,15 17,13 15,13 	"/>
</g>
</svg>
