<?xml version="1.0" encoding="utf-8"?>
<!-- Generator: Adobe Illustrator 16.0.0, SVG Export Plug-In . SVG Version: 6.00 Build 0)  -->
<!DOCTYPE svg PUBLIC "-//W3C//DTD SVG 1.1//EN" "http://www.w3.org/Graphics/SVG/1.1/DTD/svg11.dtd">
<svg version="1.1" id="Layer_1" xmlns="http://www.w3.org/2000/svg" xmlns:xlink="http://www.w3.org/1999/xlink" x="0px" y="0px"
	 width="32px" height="32px" viewBox="0 0 32 32" enable-background="new 0 0 32 32" xml:space="preserve">
<g>
	<polygon fill="#FFFFFF" points="12,8 12,21 16,17 21,17 	"/>
	<polygon fill="#FFFFFF" points="20,23 18,24 13.2,14.103 15,13 	"/>
</g>
<path fill="#FFFFFF" d="M29.957,11.046C29.841,11.197,28.486,13,26.378,13c-0.407,0-0.562-0.226-0.562-0.525
	c0-0.376,0.309-1.259,1.084-3.344l0.541-1.464c0.193-0.507,0.31-0.864,0.31-1.089c0-0.15-0.077-0.226-0.232-0.226
	c-0.31,0-0.746,0.496-1.017,0.797c-0.078,0.075-0.156,0.075-0.232,0l-0.194-0.169c-0.076-0.057-0.116-0.094-0.076-0.169
	C26.115,6.697,27.403,5,29.105,5c0.465,0,0.697,0.226,0.697,0.601s-0.252,1.07-0.581,1.953l-1.083,2.854
	c-0.271,0.713-0.348,1.014-0.348,1.202c0,0.149,0.076,0.263,0.232,0.263c0.387-0.037,1.393-1.052,1.509-1.201
	c0.038-0.076,0.116-0.076,0.174-0.02l0.213,0.207C29.995,10.933,30.035,10.971,29.957,11.046z M28.999,4c-0.553,0-1-0.448-1-1
	s0.447-1,1-1s1,0.448,1,1S29.552,4,28.999,4z"/>
</svg>
