<svg width="36" height="36" xmlns="http://www.w3.org/2000/svg">
 <defs>
  <clipPath id="clipPath16">
   <path id="path18" d="m-1.961373,-0.356223l0,44.999999l45.000001,0l0,-44.999999l-45.000001,0"/>
  </clipPath>
 </defs>
 <g>
  <title>Layer 1</title>
  <g id="g10">
   <g id="g12">
    <g id="g14" clip-path="url(#clipPath16)">
     <g id="g20">
      <g id="g22">
       <g id="g24">
        <path fill="#2b2b2b" fill-rule="evenodd" id="path26" d="m6.610787,31.046158l0,-26.378798c0,-0.674963 0.603464,-1.22262 1.347208,-1.22262l11.777263,0l10.084209,9.151634l0,18.449784c0,0.674963 -0.603464,1.222618 -1.34721,1.222618l-20.514263,0c-0.743745,0 -1.347208,-0.547655 -1.347208,-1.222618z"/>
       </g>
      </g>
      <g id="g28">
       <g id="g30">
        <path fill="#525252" fill-rule="evenodd" id="path32" d="m19.7353,3.44474l10.0842,9.15166l-8.737,0c-0.743801,0 -1.3472,-0.5477 -1.3472,-1.2226l0,-7.92906l0,0z"/>
       </g>
      </g>
      <g id="g34">
       <g id="g36">
        <path fill="#e6e6e6" fill-rule="nonzero" id="path38" d="m13.9141,27.9051l0.2956,0.4564c-0.427,0.4356 -1.019,0.6534 -1.776,0.6534c-0.7182,0 -1.312799,-0.2106 -1.783899,-0.6318c-0.470301,-0.420301 -0.70496,-0.969601 -0.70496,-1.647701c0,-0.6782 0.23646,-1.227499 0.710259,-1.647799c0.4746,-0.4212 1.0666,-0.631701 1.7786,-0.631701c0.7137,0 1.2881,0.195299 1.7248,0.5844l-0.2858,0.499701c-0.113,-0.130501 -0.3,-0.253801 -0.5612,-0.368301c-0.261999,-0.1145 -0.545199,-0.172199 -0.850499,-0.172199c-0.5302,0 -0.9643,0.159399 -1.303101,0.478001c-0.3387,0.318699 -0.5081,0.7342 -0.5081,1.245098c0,0.5116 0.1711,0.9263 0.5117,1.243401c0.3405,0.3179 0.7737,0.4764 1.2995,0.4764c0.606099,0 1.0905,-0.1786 1.453099,-0.5373l0,0z"/>
       </g>
      </g>
      <g id="g40">
       <g id="g42">
        <path fill="#e6e6e6" fill-rule="nonzero" id="path44" d="m17.8799,27.709c0,0.3867 -0.169399,0.707001 -0.5091,0.958401c-0.3106,0.2314 -0.7076,0.3475 -1.1919,0.3475c-0.1968,0 -0.3838,-0.0257 -0.5594,-0.0753c-0.1755,-0.049601 -0.3308,-0.120899 -0.4676,-0.2122c-0.136701,-0.0921 -0.2408,-0.1681 -0.3114,-0.229799c-0.0715,-0.0616 -0.1482,-0.1369 -0.2312,-0.226601l0.3997,-0.415501c0.1394,0.1705 0.3194,0.318701 0.5382,0.4452c0.2197,0.1257 0.4517,0.1889 0.697801,0.1889c0.272699,0 0.499399,-0.0672 0.679399,-0.201698c0.18,-0.134602 0.2708,-0.314701 0.2708,-0.542101c0,-0.1057 -0.0264,-0.201799 -0.0776,-0.287399c-0.052099,-0.0849 -0.1306,-0.1586 -0.2356,-0.220201c-0.105801,-0.061699 -0.184401,-0.104099 -0.236401,-0.128099c-0.051199,-0.024 -0.1315,-0.054501 -0.2391,-0.0921c-0.3811,-0.137699 -0.6388,-0.2362 -0.7746,-0.296999c-0.1977,-0.0809 -0.36,-0.185001 -0.4888,-0.312302c-0.210899,-0.1994 -0.3167,-0.455599 -0.3167,-0.768599c0,-0.341101 0.1482,-0.624601 0.4438,-0.8496c0.2867,-0.2169 0.6616,-0.3258 1.122201,-0.328201c0.530199,0 0.995199,0.1905 1.3948,0.5716l-0.3582,0.422001c-0.328201,-0.316299 -0.685501,-0.4748 -1.071001,-0.4748c-0.249701,0 -0.4535,0.0536 -0.6106,0.1609c-0.157001,0.1073 -0.2355,0.258699 -0.2355,0.4548c0,0.0977 0.0168,0.1842 0.0512,0.259399c0.0344,0.074501 0.0864,0.1385 0.1552,0.192202c0.0688,0.052799 0.1333,0.0945 0.1941,0.124899c0.0609,0.0296 0.1359,0.061701 0.2259,0.095301l0.8946,0.3403c0.233801,0.097599 0.4182,0.216101 0.551399,0.3563c0.1968,0.2225 0.295601,0.470699 0.295601,0.743799l0,0z"/>
       </g>
      </g>
      <g id="g46">
       <g id="g48">
        <path fill="#e6e6e6" fill-rule="nonzero" id="path50" d="m21.608292,24.521515l0.719919,0l-1.793627,4.421288l-0.606113,0l-1.7901,-4.421288l0.733158,0l1.366615,3.518137l1.370148,-3.518137z"/>
       </g>
      </g>
     </g>
    </g>
   </g>
  </g>
 </g>
</svg>