<?xml version="1.0" encoding="utf-8"?>
<!-- Generator: Adobe Illustrator 16.0.0, SVG Export Plug-In . SVG Version: 6.00 Build 0)  -->
<!DOCTYPE svg PUBLIC "-//W3C//DTD SVG 1.1//EN" "http://www.w3.org/Graphics/SVG/1.1/DTD/svg11.dtd">
<svg version="1.1" id="Layer_1" xmlns="http://www.w3.org/2000/svg" xmlns:xlink="http://www.w3.org/1999/xlink" x="0px" y="0px"
	 width="40px" height="40px" viewBox="0 0 40 40" enable-background="new 0 0 40 40" xml:space="preserve">
<g>
	<g>
		<polygon fill="#1D1D1B" points="34.942,40.08 0,40.08 0,5.139 16.083,5.139 16.083,7.776 2.637,7.776 2.637,37.443 32.305,37.443 
			32.305,23.717 34.942,23.717 		"/>
	</g>
	<path fill="#1D1D1B" d="M39.961,1.51c-0.012-0.059-0.033-0.114-0.051-0.172c-0.02-0.066-0.035-0.133-0.062-0.197
		c-0.028-0.069-0.066-0.131-0.103-0.196c-0.026-0.048-0.048-0.098-0.078-0.144c-0.146-0.218-0.332-0.404-0.55-0.549
		c-0.045-0.03-0.094-0.051-0.142-0.077c-0.065-0.037-0.129-0.076-0.198-0.104c-0.064-0.026-0.13-0.042-0.196-0.061
		c-0.057-0.018-0.113-0.04-0.173-0.052c-0.128-0.025-0.257-0.039-0.387-0.039H20.222c-1.092,0-1.978,0.886-1.978,1.978
		s0.886,1.978,1.978,1.978h13.025L16.405,20.718c-0.772,0.772-0.772,2.024,0,2.796c0.386,0.387,0.893,0.58,1.398,0.58
		c0.506,0,1.013-0.193,1.399-0.58L36.044,6.672v13.026c0,1.092,0.886,1.978,1.979,1.978c1.092,0,1.978-0.885,1.978-1.978V1.897
		C40,1.768,39.986,1.638,39.961,1.51z"/>
</g>
</svg>
