<?xml version="1.0" encoding="UTF-8"?>
<svg width="38" height="38" xmlns="http://www.w3.org/2000/svg">
 <metadata id="metadata7">image/svg+xml</metadata>
 <g>
  <title>Layer 1</title>
  <g id="layer1">
   <rect fill="#dbdee3" fill-rule="evenodd" stroke="#000000" stroke-width="1.04503357px" y="6.221239" x="6.416515" height="7.228404" width="7.359539" id="rect3001"/>
   <rect fill="#dbdee3" fill-rule="evenodd" stroke="#000000" stroke-width="1.04503357px" y="16.031159" x="6.416514" height="7.228404" width="7.359539" id="rect3001-6"/>
   <rect fill="#dbe2e3" fill-opacity="0.3379" fill-rule="evenodd" stroke="#000000" stroke-width="1.04503357px" y="25.472243" x="6.341417" height="7.228404" width="7.359539" id="rect3001-0"/>
   <path fill="#00aa00" d="m5.658359,8.937809c0.287904,0.061968 0.544571,0.209227 0.802873,0.341015c0.397529,0.224741 0.734096,0.534771 1.073193,0.829239c0.479349,0.426303 0.875853,0.930043 1.313375,1.38733c0.109674,0.116226 0.224251,0.232499 0.336379,0.341015c0.45432,0.45724 0.972959,0.836996 1.479193,1.22451c0.05868,0.038789 0.30442,0.317788 0.376414,0.286757c0.021959,-0.007757 0.033772,-0.030937 0.050651,-0.046453c-1.498508,0.860271 -0.915625,0.573514 -0.639822,0.232452c0.175996,-0.216937 0.337142,-0.449483 0.506932,-0.674271c0.37387,-0.472756 0.706301,-0.984254 1.10621,-1.441542c0.369815,-0.426256 0.538759,-0.573513 0.949299,-0.976496c1.325288,-1.271057 2.686039,-2.503373 4.098754,-3.681385c0.533924,-0.410787 1.069326,-0.821528 1.594385,-1.240074c0,0 0.951441,-0.379756 0.951441,-0.379756l0,0c-0.543776,0.434014 -1.098223,0.852512 -1.65111,1.271058c-1.410416,1.162542 -2.769279,2.379343 -4.073223,3.658111c-0.397077,0.387513 -0.567991,0.542529 -0.925172,0.953317c-0.391003,0.449482 -0.711242,0.953269 -1.07091,1.426073c-0.120346,0.154967 -0.236457,0.309936 -0.352199,0.472755c-0.065114,0.092999 -0.233763,0.379756 -0.334367,0.441725c-0.339801,0.209272 -0.693173,0.403029 -1.039764,0.604545c-0.031408,0 -0.063843,0 -0.094224,-0.007758c-0.146345,-0.038789 -0.260543,-0.247967 -0.380192,-0.333303c-0.48764,-0.410693 -0.985542,-0.805964 -1.43882,-1.255542c-0.559175,-0.573466 -1.081574,-1.170254 -1.677896,-1.705025c-0.338201,-0.286757 -0.676558,-0.589029 -1.074965,-0.798302c-0.253704,-0.123983 -0.509067,-0.271241 -0.797668,-0.302225c0,0 0.911234,-0.627771 0.911234,-0.627771l0,0z" id="path3800"/>
   <path fill="#00aa00" d="m6.255772,17.556122c0.287896,0.061966 0.544572,0.20927 0.802873,0.340965c0.397521,0.224789 0.734096,0.534819 1.073184,0.829334c0.479349,0.426207 0.87586,0.922235 1.313375,1.387236c0.109683,0.116272 0.224258,0.224789 0.336388,0.341061c0.454311,0.449482 0.972949,0.829239 1.479184,1.224512c0.058679,0.038788 0.304429,0.317787 0.376414,0.286755c0.021968,-0.015514 0.033773,-0.038692 0.050651,-0.054211c-1.498508,0.868029 -0.915626,0.581272 -0.639822,0.24021c0.175997,-0.224691 0.337151,-0.449482 0.506932,-0.674271c0.37387,-0.480513 0.706307,-0.984205 1.106177,-1.44154c0.369823,-0.426208 0.538767,-0.573515 0.949307,-0.976545c1.325287,-1.271055 2.686038,-2.503325 4.098754,-3.681382c0.533924,-0.410693 1.069407,-0.821482 1.594465,-1.247785c0,0 0.951359,-0.371999 0.951359,-0.371999l0,0c-0.543774,0.426304 -1.098221,0.844754 -1.651026,1.2633c-1.4105,1.162541 -2.769362,2.387052 -4.073305,3.658111c-0.397077,0.395273 -0.567992,0.550333 -0.925173,0.961027c-0.391003,0.449577 -0.711161,0.945608 -1.070886,1.418362c-0.120346,0.162727 -0.236424,0.317694 -0.352197,0.480515c-0.065108,0.093 -0.233766,0.371998 -0.334369,0.433968c-0.339802,0.21703 -0.693173,0.410788 -1.039764,0.612303c-0.0314,0 -0.063835,0 -0.094225,-0.007759c-0.146345,-0.038788 -0.260542,-0.255726 -0.380191,-0.333303c-0.48764,-0.410692 -0.985542,-0.813723 -1.438819,-1.2633c-0.559176,-0.565754 -1.081575,-1.170206 -1.677896,-1.697266c-0.338193,-0.294516 -0.676558,-0.589029 -1.074965,-0.798304c-0.253704,-0.131693 -0.509067,-0.27124 -0.797668,-0.302271c0,0 0.911233,-0.635481 0.911233,-0.635481l0.000008,0.007759z" id="path3800-8"/>
   <path fill="#00aa00" d="m5.880285,27.58494c0.287896,0.062063 0.544571,0.209272 0.802873,0.341061c0.397521,0.224695 0.734096,0.534725 1.073193,0.829239c0.479349,0.426304 0.875852,0.93009 1.313367,1.387331c0.109683,0.116276 0.224257,0.232548 0.336387,0.340969c0.454311,0.457335 0.972951,0.82933 1.479184,1.224604c0.058688,0.038694 0.30443,0.317694 0.376415,0.286758c0.021969,-0.007759 0.033773,-0.031033 0.050651,-0.046549c-1.498508,0.860271 -0.915625,0.573513 -0.639814,0.232548c0.175989,-0.217031 0.337143,-0.449484 0.506925,-0.674271c0.37387,-0.472757 0.7063,-0.984303 1.106177,-1.441544c0.369823,-0.426302 0.538768,-0.573513 0.949307,-0.976543c1.325287,-1.271057 2.686037,-2.503326 4.098755,-3.681383c0.533924,-0.410788 1.069407,-0.821577 1.594463,-1.240026c0,0 0.951361,-0.379755 0.951361,-0.379755l0,0c-0.543776,0.433966 -1.098223,0.85251 -1.651028,1.270962c-1.4105,1.162542 -2.769361,2.379391 -4.073304,3.658205c-0.397077,0.387514 -0.567992,0.542482 -0.925173,0.95327c-0.390921,0.449484 -0.71116,0.95327 -1.070886,1.426027c-0.120346,0.154968 -0.236456,0.310026 -0.352198,0.472754c-0.065107,0.093002 -0.233765,0.379757 -0.334368,0.441818c-0.339802,0.209183 -0.693173,0.402939 -1.039764,0.604454c-0.031407,0 -0.063834,0 -0.094224,-0.007759c-0.146345,-0.038696 -0.260534,-0.247971 -0.380192,-0.333214c-0.48764,-0.410786 -0.985542,-0.806057 -1.438821,-1.255541c-0.559175,-0.573511 -1.081573,-1.170298 -1.677895,-1.705116c-0.338193,-0.286757 -0.676558,-0.588934 -1.074965,-0.798208c-0.253704,-0.124031 -0.509067,-0.27124 -0.797668,-0.302271c0,0 0.911233,-0.627819 0.911233,-0.627819l0.000009,0z" id="path3800-6"/>
   <rect fill="#000000" y="9.614158" x="17.155435" height="0.95887" width="15.094565" id="rect3827"/>
   <rect fill="#000000" y="19.534674" x="16.96769" height="0.95887" width="15.094565" id="rect3827-8"/>
   <rect fill="#000000" y="28.238242" x="16.96769" height="0.95887" width="15.094565" id="rect3827-3"/>
  </g>
 </g>
</svg>