<?xml version="1.0" encoding="utf-8"?>
<!-- Generator: Adobe Illustrator 16.0.0, SVG Export Plug-In . SVG Version: 6.00 Build 0)  -->
<!DOCTYPE svg PUBLIC "-//W3C//DTD SVG 1.0//EN" "http://www.w3.org/TR/2001/REC-SVG-20010904/DTD/svg10.dtd">
<svg version="1.0" id="Layer_1" xmlns="http://www.w3.org/2000/svg" xmlns:xlink="http://www.w3.org/1999/xlink" x="0px" y="0px"
	 width="18px" height="18px" viewBox="0 0 18 18" enable-background="new 0 0 18 18" xml:space="preserve">
<path fill="#FFFFFF" d="M9,1C4.582,1,1,4.582,1,9c0,4.418,3.582,8,8,8s8-3.582,8-8C17,4.582,13.418,1,9,1z M10.958,12.047
	C10.842,12.197,9.487,14,7.379,14c-0.407,0-0.562-0.226-0.562-0.525c0-0.376,0.309-1.259,1.084-3.344l0.541-1.464
	c0.193-0.507,0.31-0.864,0.31-1.089c0-0.15-0.077-0.226-0.232-0.226c-0.31,0-0.746,0.496-1.017,0.797
	c-0.078,0.075-0.156,0.075-0.232,0L7.076,7.979C7,7.923,6.96,7.885,7,7.811C7.116,7.697,8.404,6,10.106,6
	c0.465,0,0.697,0.226,0.697,0.601s-0.252,1.07-0.581,1.953L9.14,11.408c-0.271,0.713-0.348,1.014-0.348,1.202
	c0,0.149,0.076,0.263,0.232,0.263c0.387-0.037,1.393-1.052,1.509-1.201c0.038-0.076,0.116-0.076,0.174-0.02l0.213,0.207
	C10.996,11.934,11.036,11.972,10.958,12.047z M10,5C9.447,5,9,4.553,9,4s0.447-1,1-1s1,0.448,1,1S10.553,5,10,5z"/>
</svg>
