<?xml version="1.0" encoding="utf-8"?>
<!-- Generator: Adobe Illustrator 16.0.0, SVG Export Plug-In . SVG Version: 6.00 Build 0)  -->
<!DOCTYPE svg PUBLIC "-//W3C//DTD SVG 1.1//EN" "http://www.w3.org/Graphics/SVG/1.1/DTD/svg11.dtd">
<svg version="1.1" id="Layer_1" xmlns="http://www.w3.org/2000/svg" xmlns:xlink="http://www.w3.org/1999/xlink" x="0px" y="0px"
	 width="32px" height="32px" viewBox="0 40.75 32 32" enable-background="new 0 40.75 32 32" xml:space="preserve">
<g>
	<g>
		<polygon points="10.117,24.928 7.306,14.021 4.157,24.916 2.914,18.144 3.402,17.986 4.313,22.496 7.332,12.052 10.021,22.481 
			12.838,6.024 15.717,22.6 18.358,13.994 21.079,22.604 23.879,6.003 26.716,22.575 28.84,15.465 29.298,15.761 26.586,24.838 
			23.884,9.037 21.225,24.808 18.365,15.761 15.587,24.812 12.842,9.015 		"/>
		<polygon fill="none" stroke="#000000" stroke-linecap="round" stroke-linejoin="round" stroke-miterlimit="10" points="
			10.117,24.928 7.306,14.021 4.157,24.916 2.914,18.144 3.402,17.986 4.313,22.496 7.332,12.052 10.021,22.481 12.838,6.024 
			15.717,22.6 18.358,13.994 21.079,22.604 23.879,6.003 26.716,22.575 28.84,15.465 29.298,15.761 26.586,24.838 23.884,9.037 
			21.225,24.808 18.365,15.761 15.587,24.812 12.842,9.015 		"/>
	</g>
</g>
<g>
	<g>
		<rect x="4.463" y="49.892" width="6.023" height="14.858"/>
	</g>
	<g>
		<rect x="12.989" y="53.957" width="6.022" height="10.793"/>
	</g>
	<g>
		<rect x="21.515" y="47.039" width="6.022" height="17.711"/>
	</g>
</g>
<line fill="none" stroke="#000000" stroke-width="2" stroke-miterlimit="10" x1="1.5" y1="67.859" x2="30.5" y2="67.859"/>
</svg>
