<?xml version="1.0"?>
<svg width="32" height="32" xmlns="http://www.w3.org/2000/svg">
 <g>
  <title>Layer 1</title>
  <path fill="#ffffff" d="m29.7983,11.046c-0.115999,0.151 -1.471001,1.954 -3.579,1.954c-0.407,0 -0.561998,-0.226 -0.561998,-0.525c0,-0.376 0.309,-1.259001 1.084,-3.344001l0.540998,-1.464c0.193001,-0.507 0.310001,-0.864 0.310001,-1.089c0,-0.15 -0.077,-0.226 -0.232,-0.226c-0.309999,0 -0.746,0.496 -1.017,0.797c-0.077999,0.075 -0.156,0.075 -0.232,0l-0.194,-0.169c-0.075998,-0.057 -0.115999,-0.094 -0.075998,-0.169c0.115,-0.114 1.403,-1.811 3.105,-1.811c0.465,0 0.696999,0.226 0.696999,0.601s-0.251999,1.07 -0.580999,1.953l-1.083,2.854c-0.271,0.713 -0.348,1.014 -0.348,1.202c0,0.149 0.076,0.263 0.232,0.263c0.386999,-0.037 1.393,-1.052 1.508999,-1.201c0.038,-0.076 0.116001,-0.076 0.174002,-0.02l0.212999,0.207c0.077,0.074 0.117001,0.112 0.039,0.186999l0,0zm-0.958,-7.046c-0.552999,0 -1,-0.448 -1,-1s0.447001,-1 1,-1s1,0.448 1,1s-0.447001,1 -1,1z"/>
  <rect transform="rotate(0.04538813978433609 15.490030288695442,9.443178176880327) " id="svg_2" width="0.15873" y="13.14285" x="16" stroke-linecap="null" stroke-linejoin="null" stroke-dasharray="null" stroke-width="null" fill="black"/>
  <path id="svg_3" d="m8.13018,9.90272l16.88732,-0.029552l-5.955919,3.003922l-17.299401,0.08608" stroke-linecap="square" stroke-linejoin="null" stroke-width="0.2" fill="#ffffff" stroke="#191919"/>
  <path transform="rotate(0.04538813978433609 15.490030288695442,9.443178176880327) " id="svg_4" d="m4.85504,12.59459" opacity="0.5" stroke-linecap="null" stroke-linejoin="null" stroke-dasharray="null" stroke-width="null" fill="black"/>
  <path id="svg_3" d="m8.30552,13.43881l16.887322,-0.029552l-5.955923,3.003921l-17.299397,0.086081" stroke-linecap="square" stroke-linejoin="null" stroke-width="0.2" fill="#ffffff" stroke="#191919"/>
  <path transform="rotate(0.04538813978433609 15.490030288695442,9.443178176880327) " id="svg_4" d="m4.85504,12.59459" opacity="0.5" stroke-linecap="null" stroke-linejoin="null" stroke-dasharray="null" stroke-width="null" fill="black"/>
  <path id="svg_3" d="m8.50868,16.89142l16.88732,-0.029551l-5.955919,3.00392l-17.299401,0.086081" stroke-linecap="square" stroke-linejoin="null" stroke-width="0.2" fill="#ffffff" stroke="#191919"/>
  <path transform="rotate(0.04538813978433609 15.490030288695442,9.443178176880327) " id="svg_4" d="m4.85504,12.59459" opacity="0.5" stroke-linecap="null" stroke-linejoin="null" stroke-dasharray="null" stroke-width="null" fill="black"/>
  <path id="svg_3" d="m8.34232,20.30538l16.887319,-0.029551l-5.955917,3.003922l-17.299402,0.086079" stroke-linecap="square" stroke-linejoin="null" stroke-width="0.2" fill="#ffffff" stroke="#191919"/>
  <path transform="rotate(0.04538813978433609 15.490030288695442,9.443178176880327) " id="svg_4" d="m4.85504,12.59459" opacity="0.5" stroke-linecap="null" stroke-linejoin="null" stroke-dasharray="null" stroke-width="null" fill="black"/>
  <path id="svg_3" d="m8.35469,23.87673l16.887321,-0.029551l-5.955917,3.003922l-17.299402,0.086079" stroke-linecap="square" stroke-linejoin="null" stroke-width="0.2" fill="#ffffff" stroke="#191919"/>
  <path transform="rotate(0.04538813978433609 15.490030288695442,9.443178176880327) " id="svg_4" d="m4.85504,12.59459" opacity="0.5" stroke-linecap="null" stroke-linejoin="null" stroke-dasharray="null" stroke-width="null" fill="black"/>
 </g>
</svg>