<?xml version="1.0"?>
<svg width="32" height="32" xmlns="http://www.w3.org/2000/svg">
 <g>
  <title>Layer 1</title>
  <path d="m29.798269,11.046c-0.115999,0.151 -1.470999,1.954 -3.578999,1.954c-0.407001,0 -0.562,-0.226 -0.562,-0.525c0,-0.376 0.309,-1.259001 1.084,-3.344001l0.541,-1.464c0.192999,-0.507 0.309999,-0.864 0.309999,-1.089c0,-0.15 -0.077,-0.226 -0.232,-0.226c-0.309999,0 -0.746,0.496 -1.017,0.797c-0.077999,0.075 -0.156,0.075 -0.231998,0l-0.194,-0.169c-0.076,-0.057 -0.116001,-0.094 -0.076,-0.169c0.115,-0.114 1.403,-1.811 3.105,-1.811c0.465,0 0.697001,0.226 0.697001,0.601s-0.252001,1.07 -0.581001,1.953l-1.082998,2.854c-0.271002,0.713 -0.348001,1.014 -0.348001,1.202c0,0.149 0.076,0.263 0.232,0.263c0.387001,-0.037 1.393,-1.052 1.509001,-1.201c0.038,-0.076 0.115999,-0.076 0.174,-0.02l0.212999,0.207c0.077,0.074 0.117001,0.112 0.039,0.186999zm-0.958,-7.046c-0.552999,0 -1,-0.448 -1,-1s0.447001,-1 1,-1s1,0.448 1,1s-0.446999,1 -1,1z" fill="black"/>
  <rect fill="black" stroke-width="null" stroke-dasharray="null" stroke-linejoin="null" stroke-linecap="null" x="16" y="13.14285" width="0.15873" id="svg_2" transform="rotate(0.04538813978433609 15.490030288695442,9.443178176880327) "/>
  <path stroke="#191919" fill="#000000" stroke-width="0.2" stroke-linejoin="null" stroke-linecap="square" d="m8.13018,9.90272l16.88732,-0.029551l-5.955919,3.003921l-17.299401,0.08608" id="svg_3"/>
  <path fill="black" stroke-width="null" stroke-dasharray="null" stroke-linejoin="null" stroke-linecap="null" opacity="0.5" d="m4.85504,12.59459" id="svg_4" transform="rotate(0.04538813978433609 15.490030288695442,9.443178176880327) "/>
  <path stroke="#191919" fill="#333333" stroke-width="0.2" stroke-linejoin="null" stroke-linecap="square" d="m8.30552,13.43881l16.887321,-0.029551l-5.955921,3.00392l-17.299399,0.086081" id="svg_3"/>
  <path fill="black" stroke-width="null" stroke-dasharray="null" stroke-linejoin="null" stroke-linecap="null" opacity="0.5" d="m4.85504,12.59459" id="svg_4" transform="rotate(0.04538813978433609 15.490030288695442,9.443178176880327) "/>
  <path stroke="#191919" fill="#666666" stroke-width="0.2" stroke-linejoin="null" stroke-linecap="square" d="m8.50868,16.89142l16.88732,-0.029551l-5.955919,3.00392l-17.299401,0.086081" id="svg_3"/>
  <path fill="black" stroke-width="null" stroke-dasharray="null" stroke-linejoin="null" stroke-linecap="null" opacity="0.5" d="m4.85504,12.59459" id="svg_4" transform="rotate(0.04538813978433609 15.490030288695442,9.443178176880327) "/>
  <path stroke="#191919" fill="#999999" stroke-width="0.2" stroke-linejoin="null" stroke-linecap="square" d="m8.34232,20.30538l16.887319,-0.029551l-5.955919,3.003922l-17.2994,0.086079" id="svg_3"/>
  <path fill="black" stroke-width="null" stroke-dasharray="null" stroke-linejoin="null" stroke-linecap="null" opacity="0.5" d="m4.85504,12.59459" id="svg_4" transform="rotate(0.04538813978433609 15.490030288695442,9.443178176880327) "/>
  <path stroke="#191919" fill="#cccccc" stroke-width="0.2" stroke-linejoin="null" stroke-linecap="square" d="m8.35469,23.87673l16.887321,-0.029551l-5.955919,3.003922l-17.299401,0.086079" id="svg_3"/>
  <path fill="black" stroke-width="null" stroke-dasharray="null" stroke-linejoin="null" stroke-linecap="null" opacity="0.5" d="m4.85504,12.59459" id="svg_4" transform="rotate(0.04538813978433609 15.490030288695442,9.443178176880327) "/>
 </g>
</svg>