<?xml version="1.0" encoding="utf-8"?>
<!-- Generator: Adobe Illustrator 16.0.0, SVG Export Plug-In . SVG Version: 6.00 Build 0)  -->
<!DOCTYPE svg PUBLIC "-//W3C//DTD SVG 1.0//EN" "http://www.w3.org/TR/2001/REC-SVG-20010904/DTD/svg10.dtd">
<svg version="1.0" id="Layer_1" xmlns="http://www.w3.org/2000/svg" xmlns:xlink="http://www.w3.org/1999/xlink" x="0px" y="0px"
	 width="26px" height="26px" viewBox="0 0 26 26" enable-background="new 0 0 26 26" xml:space="preserve">
<g>
	<circle fill="#2C3034" cx="3.001" cy="3" r="1"/>
	<circle fill="#2C3034" cx="8" cy="3" r="1"/>
	<circle fill="#2C3034" cx="13" cy="3" r="1"/>
	<circle fill="#2C3034" cx="18" cy="3" r="1"/>
	<circle fill="#2C3034" cx="23" cy="3" r="1"/>
	<circle fill="#2C3034" cx="3.001" cy="8" r="1.5"/>
	<circle fill="#2C3034" cx="8" cy="8" r="1.5"/>
	<circle fill="#2C3034" cx="13" cy="8" r="1.5"/>
	<circle fill="#2C3034" cx="18" cy="8" r="1.5"/>
	<circle fill="#2C3034" cx="23" cy="8" r="1.5"/>
	<circle fill="#2C3034" cx="3" cy="13" r="2"/>
	<circle fill="#2C3034" cx="8" cy="13" r="2"/>
	<circle fill="#2C3034" cx="13" cy="13" r="2"/>
	<circle fill="#2C3034" cx="18" cy="13" r="2"/>
	<circle fill="#2C3034" cx="23" cy="13" r="2"/>
	<circle fill="#2C3034" cx="3.001" cy="18" r="1.5"/>
	<circle fill="#2C3034" cx="8" cy="18" r="1.5"/>
	<circle fill="#2C3034" cx="13" cy="18" r="1.5"/>
	<circle fill="#2C3034" cx="18" cy="18" r="1.5"/>
	<circle fill="#2C3034" cx="23" cy="18" r="1.5"/>
	<circle fill="#2C3034" cx="3.001" cy="23" r="1"/>
	<circle fill="#2C3034" cx="8" cy="23" r="1"/>
	<circle fill="#2C3034" cx="13" cy="23" r="1"/>
	<circle fill="#2C3034" cx="18" cy="23" r="1"/>
	<circle fill="#2C3034" cx="23" cy="23" r="1"/>
</g>
</svg>
