<?xml version="1.0" encoding="utf-8"?>
<!-- Generator: Adobe Illustrator 16.0.0, SVG Export Plug-In . SVG Version: 6.00 Build 0)  -->
<!DOCTYPE svg PUBLIC "-//W3C//DTD SVG 1.0//EN" "http://www.w3.org/TR/2001/REC-SVG-20010904/DTD/svg10.dtd">
<svg version="1.0" id="Layer_1" xmlns="http://www.w3.org/2000/svg" xmlns:xlink="http://www.w3.org/1999/xlink" x="0px" y="0px"
	 width="18px" height="14px" viewBox="0 0 18 14" enable-background="new 0 0 18 14" xml:space="preserve">
<g>
	<path fill="#82B600" d="M18,7c0,3.866-3.134,7-7,7H7c-3.867,0-7-3.134-7-7l0,0c0-3.866,3.134-7,7-7h4C14.866,0,18,3.134,18,7L18,7z
		"/>
	<g>
		<path fill="#448114" d="M9.044,4.257l2.222-0.245v0.757l-0.318,0.696c-0.164-0.093-0.275-0.144-0.357-0.185
			C10.2,5.116,9.669,5.014,9.125,5.014c-0.952,0-1.565,0.256-2.087,0.859C6.619,6.364,6.373,7.01,6.373,7.675
			c0,1.627,1.249,2.825,2.938,2.825c0.337,0,0.574-0.031,1.115-0.144V8.104h0.84v2.764c-0.215,0.081-0.379,0.133-0.492,0.163
			c-0.46,0.144-1.136,0.226-1.698,0.226c-2.037,0-3.603-1.525-3.603-3.521C5.473,5.73,6.987,4.257,9.044,4.257"/>
	</g>
	<g>
		<path fill="#FFFFFF" d="M10.773,10.274c-0.46,0.144-1.136,0.226-1.698,0.226c-2.037,0-3.603-1.525-3.603-3.521
			c0-2.006,1.515-3.479,3.571-3.479c0.481,0,1.044,0.061,1.401,0.153c0.298,0.081,0.451,0.153,0.82,0.358l-0.318,0.696
			c-0.164-0.093-0.275-0.144-0.357-0.185C10.2,4.359,9.669,4.257,9.125,4.257c-0.952,0-1.565,0.256-2.087,0.859
			C6.619,5.607,6.373,6.253,6.373,6.918c0,1.627,1.249,2.825,2.938,2.825c0.337,0,0.574-0.031,1.115-0.144V7.348h0.84v2.764
			C11.051,10.192,10.887,10.244,10.773,10.274z"/>
	</g>
</g>
</svg>
